<svg width="495" height="430" viewBox="0 0 495 430" fill="none" xmlns="http://www.w3.org/2000/svg">
<g clip-path="url(#clip0_45_1099)">
<path d="M211.875 357.438L237.5 390.561L206.25 393.351L211.875 357.438Z" fill="#3F3D56"/>
<path d="M495 239.946C495.003 248.812 494.533 257.672 493.594 266.488C493.581 266.625 493.563 266.757 493.544 266.894C489.073 308.332 474.145 347.954 450.163 382.043C432.781 368.956 415.538 354.526 397.319 342.395C389.062 336.821 380.419 331.84 371.456 327.49C365.365 324.56 359.069 322.075 352.619 320.053C352.4 319.984 352.175 319.916 351.956 319.853C346.328 318.128 340.576 316.837 334.75 315.991C331.798 315.57 328.824 315.311 325.844 315.216C320.458 315.055 315.069 315.386 309.744 316.203C308.1 316.453 306.463 316.747 304.831 317.084C291.019 319.872 277.619 325.49 264.681 332.19H264.675C251.938 338.789 239.656 346.439 227.888 353.501C215.444 360.956 203.581 367.744 192.363 371.918C190.713 372.531 189.075 373.093 187.45 373.581C177 376.768 167.144 377.349 157.931 373.662C153.777 371.967 149.945 369.572 146.6 366.581C142.656 363.125 138.535 359.838 134.238 356.719C128.752 352.73 123.056 349.037 117.175 345.658C112.794 343.126 108.294 340.747 103.675 338.521C97.725 335.646 91.6104 333.021 85.3313 330.646C61.6368 321.772 36.7672 316.425 11.5188 314.778C-0.0495374 278.059 -2.95463 239.16 3.03127 201.13H491.969C493.993 213.969 495.007 226.948 495 239.946Z" fill="#F2F2F2"/>
<path d="M348.637 21.5735C348.644 26.8276 346.661 31.8895 343.087 35.7413C342.812 36.035 342.525 36.3225 342.237 36.5975C331.462 28.2999 320.159 20.7115 308.4 13.8803C308.544 13.5115 308.7 13.1428 308.869 12.7866C310.877 8.4453 314.324 4.93078 318.625 2.83728H318.631C328.256 5.71824 337.694 9.18702 346.894 13.2241C348.045 15.857 348.639 18.6998 348.637 21.5735Z" fill="#FF6584"/>
<path d="M365.553 64.014L365.534 64.232C351.817 63.2872 338.101 62.3408 324.387 61.3928C314.478 60.7097 304.225 59.9345 295.47 55.2444C292.146 53.4663 288.909 51.0922 285.139 50.9275C280.464 50.7192 276.384 53.9896 273.176 57.4005C254.216 77.5947 248.726 108.472 227.455 126.21C240.871 93.1284 256.888 61.1623 275.357 30.6122C278.768 24.9677 282.814 18.9404 289.147 17.0993C295.189 15.3406 301.371 17.9084 306.934 21.2031C308.126 21.9105 309.289 22.6517 310.413 23.3882C318.984 28.9988 327.415 34.8241 335.706 40.8643C345.886 48.2724 355.835 55.989 365.553 64.014Z" fill="#F2F2F2"/>
<path d="M409.918 106.844C395.256 86.1503 378.222 67.2438 359.162 50.5109C353.682 45.6949 348.041 41.0566 342.237 36.5959C331.46 28.3008 320.156 20.7122 308.397 13.8774C304.54 11.639 300.638 9.48945 296.691 7.42868C293.624 5.83466 290.358 4.3763 286.821 4.60401C284.346 4.81551 281.982 5.72439 280.003 7.22519C275.657 10.3987 272.779 15.3552 270.41 20.0791C268.336 24.2216 266.402 28.4465 264.43 32.6472C263.592 34.435 262.754 36.218 261.886 37.9913C258.863 44.2027 255.768 50.3801 252.603 56.5236C248.523 64.4405 244.325 72.2975 240.01 80.0948C230.944 96.4856 221.377 112.581 211.31 128.381C196.512 151.603 180.681 174.121 163.816 195.935C161.747 198.605 160.894 199.225 158.796 201.875C158.311 202.495 157.449 201.623 157.929 201.008C175.425 178.895 190.659 158.003 206.019 134.35C217.6 116.515 228.544 98.2847 238.852 79.6587C242.161 73.6848 245.401 67.6737 248.571 61.6254C253.703 51.8336 258.656 41.9497 263.432 31.9737C264.692 29.3477 265.939 26.712 267.173 24.0666C271.093 15.6701 276.801 3.18443 287.824 3.354C291.065 3.40246 294.074 4.71547 296.914 6.16898C299.806 7.65642 302.646 9.2359 305.48 10.8396C306.614 11.4792 307.743 12.1284 308.867 12.7873C313.32 15.3746 317.707 18.07 322.027 20.8737C329.237 25.5492 336.257 30.5041 343.085 35.7383C346.327 38.2239 349.52 40.7659 352.665 43.3644C372.396 59.688 390.138 78.2772 405.523 98.7483C407.379 101.214 409.196 103.708 410.974 106.229C411.43 106.873 410.369 107.484 409.918 106.844Z" fill="#E4E4E4"/>
<path d="M377.156 29.1043C371.362 32.4041 366.625 37.2787 362.175 42.2034C361.531 42.9158 360.892 43.6304 360.256 44.347C359.725 44.9344 358.869 44.0657 359.387 43.472C364.369 37.9037 369.487 32.2103 375.981 28.3793C376.375 28.6168 376.769 28.8605 377.156 29.1043Z" fill="#E4E4E4"/>
<path d="M219.81 102.602L203.385 96.5947L195.23 93.6122C192.595 92.5515 189.908 91.626 187.179 90.8395C184.793 90.158 182.26 90.1903 179.892 90.9323C177.78 91.7139 175.847 92.912 174.208 94.4555C172.533 95.9976 170.975 97.6616 169.546 99.4338C167.77 101.567 166.021 103.723 164.264 105.872C157.012 114.74 149.808 123.647 142.651 132.592C135.494 141.537 128.385 150.52 121.323 159.542C114.245 168.585 107.215 177.666 100.234 186.784C99.3787 187.902 98.5242 189.019 97.6705 190.137C97.1988 190.755 96.1352 190.146 96.6136 189.52C103.646 180.309 110.728 171.136 117.859 162.001C125.007 152.844 132.204 143.726 139.451 134.647C146.698 125.568 153.994 116.528 161.339 107.528C163.169 105.286 165.001 103.046 166.837 100.809C168.386 98.9216 169.917 97.0139 171.616 95.2574C174.733 92.0331 178.629 89.1836 183.291 89.1063C186.033 89.0609 188.686 89.9307 191.233 90.8521C193.979 91.8454 196.718 92.8573 199.461 93.8603L216 99.9093L220.135 101.422C220.869 101.69 220.552 102.873 219.81 102.602Z" fill="#E4E4E4"/>
<path d="M393.088 39.7911C383.713 41.8034 374.425 44.172 365.225 46.8968C371.138 43.4346 375.763 38.0037 381.856 34.8726C382.682 34.4475 383.534 34.0739 384.406 33.754C387.344 35.6976 390.238 37.71 393.088 39.7911Z" fill="#F2F2F2"/>
<path d="M174.827 102.662C176.443 100.694 178.191 98.6332 180.61 97.8339L182.868 97.923C165.68 128.291 142.468 154.827 114.654 175.901C134.712 151.488 154.769 127.075 174.827 102.662Z" fill="#F2F2F2"/>
<path d="M246.597 135.518C246.597 136.064 246.614 136.605 246.65 137.142C246.848 140.239 247.631 143.27 248.956 146.076C248.966 146.1 248.978 146.122 248.988 146.145C249.05 146.275 249.113 146.405 249.178 146.533C249.572 147.327 250.01 148.098 250.488 148.844C252.673 152.268 255.668 155.102 259.208 157.094C262.748 159.086 266.724 160.175 270.785 160.266L270.54 174.344L267.347 172.663L266.777 173.746L270.516 175.715L270.059 201.862L270.054 202.211L272.523 202.76L272.517 202.409L271.74 160.267C275.009 160.22 278.236 159.525 281.233 158.221C284.231 156.916 286.94 155.03 289.202 152.67C289.358 152.509 289.512 152.343 289.663 152.179L289.68 152.16C291.565 150.104 293.089 147.746 294.189 145.183C294.165 145.21 294.139 145.236 294.115 145.263C304.317 119.629 298.382 107.745 282.375 113.358C282.289 113.315 282.202 113.274 282.116 113.231C276.518 110.534 270.11 110.04 264.164 111.845C258.218 113.65 253.167 117.623 250.012 122.976C249.861 123.23 249.716 123.488 249.575 123.749C247.616 127.361 246.592 131.407 246.597 135.518Z" fill="#E5E5E5"/>
<path d="M217.485 113.713C217.784 118.631 219.057 123.441 221.229 127.863C225.41 136.324 232.749 142.739 241.896 145.132C241.911 145.14 241.928 145.143 241.945 145.142C244.247 145.742 246.609 146.078 248.986 146.145H249.185C249.433 146.155 249.681 146.155 249.93 146.155C250.098 146.155 250.267 146.155 250.436 146.145C258.952 146.013 267.074 142.539 273.049 136.471C279.025 130.403 282.374 122.229 282.374 113.713V113.355C282.359 111.285 282.058 109.226 281.48 107.238C281.48 107.228 281.47 107.218 281.47 107.208C280.392 103.754 278.446 100.632 275.819 98.1422C269.315 91.7075 259.016 87.6659 249.93 81.2709C230.028 67.2692 215.41 81.2013 217.485 113.713Z" fill="#E5E5E5"/>
<path opacity="0.2" d="M221.229 127.863C225.41 136.324 232.749 142.739 241.896 145.132C241.911 145.14 241.928 145.143 241.945 145.142C244.241 145.712 246.592 146.025 248.956 146.075H249.185C249.602 146.085 250.019 146.085 250.436 146.075C258.975 145.862 267.086 142.296 273.014 136.148C278.943 130.001 282.213 121.766 282.116 113.226C282.085 111.215 281.873 109.211 281.48 107.238C281.48 107.228 281.47 107.218 281.47 107.209C280.392 103.754 278.446 100.632 275.82 98.1423C276.702 102.35 276.739 106.691 275.928 110.914C275.118 115.136 273.476 119.155 271.098 122.737C268.721 126.32 265.655 129.393 262.079 131.78C258.503 134.167 254.488 135.82 250.267 136.642C249.959 136.701 249.652 136.761 249.344 136.81C248.45 136.959 247.556 137.069 246.653 137.138C241.997 137.516 237.314 136.883 232.926 135.282C228.538 133.681 224.548 131.15 221.229 127.863Z" fill="black"/>
<path d="M248.83 166.397L243.932 163.819L244.679 162.399L248.863 164.601L249.178 146.534V146.532L249.185 146.149V146.081L249.347 136.812L249.575 123.749L249.75 113.712H249.841L250.012 122.976V122.978L250.263 136.645L250.437 146.075L250.438 146.153L250.488 148.844L251.48 202.815L251.488 203.172L248.174 204.101L248.18 203.742L248.83 166.397Z" fill="#3F3D56"/>
<path d="M52.4932 135.518C52.4932 136.064 52.5109 136.605 52.5462 137.142C52.7447 140.239 53.5271 143.27 54.8522 146.076C54.8625 146.1 54.8745 146.122 54.8847 146.145C54.9464 146.275 55.0097 146.405 55.0748 146.533C55.4689 147.327 55.9061 148.098 56.3844 148.844C58.5694 152.268 61.5642 155.102 65.1042 157.094C68.6441 159.086 72.6203 160.175 76.6814 160.266L76.4365 174.344L73.2438 172.663L72.6737 173.746L76.4126 175.715L75.9555 201.862L75.9504 202.211L78.419 202.76L78.4139 202.409L77.6367 160.267C80.9054 160.22 84.1323 159.525 87.1299 158.221C90.1275 156.916 92.8362 155.03 95.0987 152.67C95.2544 152.509 95.4085 152.343 95.5592 152.179L95.5763 152.16C97.4613 150.104 98.9858 147.746 100.086 145.183C100.062 145.21 100.036 145.236 100.012 145.263C110.213 119.629 104.278 107.745 88.2714 113.358C88.1858 113.315 88.0984 113.274 88.0128 113.231C82.4142 110.534 76.0067 110.04 70.0605 111.845C64.1142 113.65 59.0631 117.623 55.9085 122.976C55.7578 123.23 55.6123 123.488 55.4719 123.749C53.5123 127.361 52.4883 131.407 52.4932 135.518Z" fill="#E5E5E5"/>
<path d="M88.2685 113.355V113.711C88.2697 122.226 84.9218 130.401 78.9476 136.469C72.9734 142.538 64.8522 146.014 56.3373 146.146H56.331C56.1623 146.153 55.9935 146.153 55.8248 146.153C55.5748 146.153 55.331 146.153 55.081 146.146H54.881C52.5045 146.08 50.1433 145.743 47.8435 145.14C47.8266 145.141 47.8097 145.139 47.7935 145.134C38.6436 142.74 31.3061 136.322 27.1248 127.866C27.0686 127.748 27.0123 127.635 26.9561 127.516C35.2429 111.298 45.2955 96.0439 56.9311 82.0319C65.7373 87.994 75.4748 91.9687 81.7186 98.1433C84.3448 100.635 86.2898 103.756 87.3685 107.211C87.3685 107.218 87.3748 107.23 87.3748 107.236C87.9538 109.225 88.2546 111.284 88.2685 113.355Z" fill="#E5E5E5"/>
<path opacity="0.2" d="M27.126 127.863C31.3069 136.324 38.6458 142.739 47.7921 145.132C47.8074 145.14 47.8246 145.143 47.8418 145.142C50.1371 145.712 52.4885 146.025 54.853 146.075H55.0814C55.4985 146.085 55.9156 146.085 56.3327 146.075C64.8711 145.862 72.9822 142.296 78.911 136.148C84.8397 130.001 88.1093 121.766 88.0122 113.226C87.9819 111.215 87.7692 109.211 87.3766 107.238C87.3766 107.228 87.3667 107.218 87.3667 107.209C86.2881 103.754 84.3428 100.632 81.716 98.1423C82.5982 102.35 82.6351 106.691 81.8246 110.914C81.0141 115.136 79.3724 119.155 76.9949 122.737C74.6173 126.32 71.5514 129.394 67.9753 131.78C64.3991 134.167 60.3842 135.82 56.1638 136.642C55.856 136.701 55.5481 136.761 55.2403 136.81C54.3465 136.959 53.4527 137.069 52.549 137.138C47.8933 137.516 43.2109 136.883 38.8227 135.282C34.4346 133.681 30.4446 131.15 27.126 127.863Z" fill="black"/>
<path d="M54.7269 166.397L49.8281 163.819L50.5756 162.399L54.7594 164.601L55.0744 146.534V146.532L55.0812 146.149V146.081L55.2444 136.812L55.4719 123.749L55.6462 113.712H55.7375L55.9088 122.976V122.978L56.16 136.645L56.3338 146.075L56.3344 146.153L56.3844 148.844L57.3775 202.815L57.3844 203.172L54.0706 204.101L54.0763 203.742L54.7269 166.397Z" fill="#3F3D56"/>
<path d="M442.507 135.518C442.507 136.064 442.489 136.605 442.454 137.142C442.256 140.239 441.473 143.27 440.148 146.076C440.138 146.1 440.126 146.122 440.116 146.145C440.054 146.275 439.99 146.405 439.925 146.533C439.531 147.327 439.094 148.098 438.616 148.844C436.431 152.268 433.436 155.102 429.896 157.094C426.356 159.086 422.38 160.175 418.319 160.266L418.564 174.344L421.756 172.663L422.327 173.746L418.588 175.715L419.045 201.862L419.05 202.211L416.581 202.76L416.586 202.409L417.364 160.267C414.095 160.22 410.868 159.525 407.87 158.221C404.873 156.916 402.164 155.03 399.902 152.67C399.746 152.509 399.592 152.343 399.441 152.179L399.424 152.16C397.539 150.104 396.014 147.746 394.915 145.183C394.939 145.21 394.964 145.236 394.988 145.263C384.787 119.629 390.722 107.745 406.729 113.358C406.814 113.315 406.902 113.274 406.987 113.231C412.586 110.534 418.993 110.04 424.94 111.845C430.886 113.65 435.937 117.623 439.092 122.976C439.242 123.23 439.388 123.488 439.528 123.749C441.488 127.361 442.512 131.407 442.507 135.518Z" fill="#E5E5E5"/>
<path d="M406.731 113.355V113.711C406.73 122.226 410.078 130.401 416.052 136.469C422.026 142.538 430.148 146.014 438.663 146.146H438.669C438.838 146.153 439.006 146.153 439.175 146.153C439.425 146.153 439.669 146.153 439.919 146.146H440.119C442.495 146.08 444.857 145.743 447.156 145.14C447.173 145.141 447.19 145.139 447.206 145.134C456.356 142.74 463.694 136.322 467.875 127.866C467.931 127.748 467.988 127.635 468.044 127.516C459.757 111.298 449.704 96.0439 438.069 82.0319C429.263 87.994 419.525 91.9687 413.281 98.1433C410.655 100.635 408.71 103.756 407.631 107.211C407.631 107.218 407.625 107.23 407.625 107.236C407.046 109.225 406.745 111.284 406.731 113.355Z" fill="#E5E5E5"/>
<path opacity="0.2" d="M467.874 127.863C463.693 136.324 456.354 142.739 447.208 145.132C447.193 145.14 447.176 145.143 447.158 145.142C444.863 145.712 442.512 146.025 440.147 146.075H439.919C439.502 146.085 439.085 146.085 438.667 146.075C430.129 145.862 422.018 142.296 416.089 136.148C410.16 130.001 406.891 121.766 406.988 113.226C407.018 111.215 407.231 109.211 407.624 107.238C407.624 107.228 407.633 107.218 407.633 107.209C408.712 103.754 410.657 100.632 413.284 98.1423C412.402 102.35 412.365 106.691 413.175 110.914C413.986 115.136 415.628 119.155 418.005 122.737C420.383 126.32 423.449 129.394 427.025 131.78C430.601 134.167 434.616 135.82 438.836 136.642C439.144 136.701 439.452 136.761 439.76 136.81C440.654 136.959 441.547 137.069 442.451 137.138C447.107 137.516 451.789 136.883 456.177 135.282C460.565 133.681 464.556 131.15 467.874 127.863Z" fill="black"/>
<path d="M440.273 166.397L445.172 163.819L444.424 162.399L440.241 164.601L439.926 146.534V146.532L439.919 146.149V146.081L439.756 136.812L439.528 123.749L439.354 113.712H439.263L439.091 122.976V122.978L438.84 136.645L438.666 146.075L438.666 146.153L438.616 148.844L437.623 202.815L437.616 203.172L440.929 204.101L440.924 203.742L440.273 166.397Z" fill="#3F3D56"/>
<path d="M493.594 266.488C493.581 266.625 493.562 266.757 493.544 266.894C480.7 272.531 463.131 276.006 443.737 276.006C422.556 276.006 403.531 271.863 390.487 265.282C382.612 261.313 376.919 256.457 374.244 251.095C373.125 248.931 372.534 246.532 372.519 244.096C372.517 243.477 372.557 242.859 372.637 242.246C372.785 241.097 373.064 239.969 373.469 238.884C374.66 235.861 376.504 233.138 378.869 230.909C379.4 230.39 379.962 229.872 380.55 229.366C385.037 225.516 391.225 222.129 398.669 219.397C388.781 224.335 382.281 230.672 380.812 237.652C380.781 237.777 380.762 237.902 380.744 238.021C380.576 238.897 380.492 239.786 380.494 240.677C380.494 240.765 380.494 240.858 380.5 240.946C380.5 240.946 380.506 240.952 380.5 240.952C380.6 246.527 383.894 251.758 389.6 256.301C401.806 266.019 425.05 272.588 451.719 272.588C467.369 272.588 481.837 270.319 493.594 266.488Z" fill="#E6E6E6"/>
<path d="M373.539 231.499C360.79 237.871 353.028 246.286 353.028 255.516C353.028 275.399 389.01 291.518 433.395 291.518C452.693 291.518 470.397 288.469 484.251 283.39C469.536 290.745 448.176 295.375 424.394 295.375C380.009 295.375 344.027 279.257 344.027 259.373C344.027 248.135 355.528 238.101 373.539 231.499Z" fill="#E6E6E6"/>
<path d="M408.289 224.727C400.329 228.705 395.482 233.959 395.482 239.722C395.482 252.137 417.948 262.201 445.661 262.201C456.458 262.34 467.198 260.624 477.413 257.126C468.226 261.718 454.889 264.609 440.041 264.609C412.328 264.609 389.862 254.545 389.862 242.131C389.862 235.113 397.043 228.849 408.289 224.727Z" fill="#E6E6E6"/>
<path d="M479.881 234.871C479.516 233.958 478.883 233.176 478.065 232.628C477.248 232.08 476.284 231.793 475.3 231.803H418.2C417.422 231.802 416.664 232.044 416.031 232.494C415.397 232.944 414.92 233.581 414.665 234.315C414.41 235.049 414.39 235.844 414.608 236.59C414.826 237.337 415.271 237.996 415.881 238.477C421.7 243.052 432.456 248.502 450.675 248.502C467.044 248.502 475.006 244.008 478.8 240.246C479.501 239.564 479.98 238.685 480.173 237.726C480.366 236.767 480.264 235.772 479.881 234.871Z" fill="#3F3D56"/>
<path d="M438.818 191.039C443.27 187.658 448.857 186.129 454.411 186.774C444.552 189.208 452.332 202.832 443.354 216.961C438.461 224.661 447.976 228.436 457.041 229.47C452.189 230.641 447.083 230.106 442.579 227.955C438.075 225.804 434.45 222.168 432.312 217.659C430.173 213.15 429.653 208.042 430.838 203.194C432.023 198.346 434.841 194.054 438.818 191.039Z" fill="#3F3D56"/>
<path d="M451.025 183.937H448.923V233.98H451.025V183.937Z" fill="#3F3D56"/>
<path d="M182.281 10.9868L182.256 11.2867C173.838 10.7055 165.421 10.1243 157.006 9.54311C162.388 7.42454 167.831 5.49339 173.388 3.74976C176.369 6.13709 179.333 8.54943 182.281 10.9868Z" fill="#F2F2F2"/>
<path d="M243.956 68.9765C243.884 69.1086 243.78 69.2203 243.653 69.3013C243.526 69.3823 243.381 69.43 243.231 69.44C243.081 69.45 242.93 69.4219 242.794 69.3584C242.657 69.2948 242.539 69.1979 242.45 69.0765C224.968 44.3953 204.988 21.5824 182.825 0.999968C183.456 0.82498 184.094 0.656239 184.725 0.5C203.631 18.1478 220.952 37.4204 236.488 58.096C239.006 61.4396 241.471 64.8206 243.881 68.2391C243.964 68.3413 244.016 68.4656 244.029 68.5966C244.042 68.7276 244.017 68.8597 243.956 68.9765Z" fill="#E4E4E4"/>
<path d="M280.726 151.077C281.67 150.87 282.649 150.873 283.592 151.085C284.535 151.297 285.42 151.713 286.185 152.304C286.95 152.896 287.576 153.647 288.019 154.507C288.462 155.366 288.711 156.312 288.749 157.278L338.516 176.493L329.12 184.294L281.927 164.227C280.3 164.183 278.746 163.543 277.558 162.43C276.371 161.316 275.634 159.806 275.486 158.185C275.338 156.564 275.789 154.946 276.755 153.636C277.721 152.325 279.134 151.415 280.726 151.077Z" fill="#FFB6B6"/>
<path d="M379.447 208.828C377.372 209.31 374.269 209.085 369.799 206.818C359.508 201.592 339.408 191.527 339.408 191.527L330.162 187.106L302.698 174.002L302.972 173.182L306.043 163.952L306.895 161.428L332.446 171.799L348.622 178.359L366.245 181.173L378.418 193.408C378.691 197.235 379.077 202.814 379.447 208.828Z" fill="#3F3D56"/>
<path d="M109.547 187.552L111.789 173.332C120.91 171.096 141.917 175.771 141.917 175.771L177.705 172.194C178.582 171.492 179.629 171.035 180.74 170.869C181.852 170.704 182.987 170.835 184.031 171.251C185.074 171.667 185.989 172.352 186.682 173.236C187.375 174.12 187.821 175.173 187.975 176.285C188.129 177.398 187.985 178.532 187.558 179.571C187.131 180.61 186.436 181.517 185.545 182.201C184.653 182.884 183.596 183.319 182.482 183.461C181.367 183.603 180.235 183.447 179.201 183.009L136.16 188.999L109.547 187.552Z" fill="#FFB6B6"/>
<path d="M112.669 188.775L93.4282 181.187L86.7236 172.665C85.5368 170.836 84.8853 168.711 84.8426 166.532C84.7999 164.352 85.3677 162.204 86.4818 160.33C88.0093 157.8 90.4405 155.944 93.2839 155.138C96.1273 154.332 99.1708 154.635 101.799 155.987C109.766 160.094 119.343 166.313 119.722 172.621L119.726 172.685L120.086 173.794L114.577 188.899L112.669 188.775Z" fill="#3F3D56"/>
<path d="M238.989 261.572C238.989 331.75 218.325 409.805 192.361 414.472C190.738 414.773 189.075 414.773 187.452 414.472C161.488 409.805 140.824 331.75 140.824 261.572C140.824 191.394 161.488 154.87 187.452 152.72C188.267 152.651 189.082 152.617 189.906 152.617C190.731 152.617 191.546 152.651 192.361 152.72C218.325 154.87 238.989 191.394 238.989 261.572Z" fill="#075985"/>
<path d="M192.36 152.72V414.472C190.738 414.773 189.074 414.773 187.452 414.472V152.72C188.267 152.651 189.082 152.617 189.906 152.617C190.731 152.617 191.546 152.651 192.36 152.72Z" fill="#F2F2F2"/>
<path d="M356.37 261.572C356.37 331.75 335.706 409.805 309.742 414.472C308.12 414.773 306.456 414.773 304.834 414.472C278.869 409.805 258.206 331.75 258.206 261.572C258.206 191.394 278.869 154.87 304.834 152.72C305.648 152.651 306.463 152.617 307.288 152.617C308.112 152.617 308.927 152.651 309.742 152.72C335.706 154.87 356.37 191.394 356.37 261.572Z" fill="#075985"/>
<path d="M309.742 152.72V414.472C308.12 414.773 306.456 414.773 304.834 414.472V152.72C305.649 152.651 306.464 152.617 307.288 152.617C308.113 152.617 308.927 152.651 309.742 152.72Z" fill="#F2F2F2"/>
<path d="M378.869 251.167L338.216 250.49L334.828 222.712H378.869V251.167Z" fill="#9E616A"/>
<path d="M341.287 421.108L331.902 421.107L327.437 384.91L341.288 384.911L341.287 421.108Z" fill="#FFB6B6"/>
<path d="M401.076 420.982L391.691 420.916L387.48 384.688L399.686 387.488L401.076 420.982Z" fill="#FFB6B6"/>
<path d="M353.869 149.038C362.078 149.038 368.733 142.384 368.733 134.175C368.733 125.966 362.078 119.312 353.869 119.312C345.659 119.312 339.004 125.966 339.004 134.175C339.004 142.384 345.659 149.038 353.869 149.038Z" fill="#FFB6B6"/>
<path d="M401.315 388.972L397.163 340.598L389.032 283.01C394.883 250.696 381.579 237.617 381.579 237.617L379.687 237.708L336.851 245.789L336.86 245.747C328.099 269.642 325.197 281.446 325.677 306.891L327.348 388.972L341.759 388.408L358.85 280.844L372.947 332.982L387.853 392.602C391.667 395.404 402.566 389.47 401.315 388.972Z" fill="#2F2E41"/>
<path d="M380.411 241.049L338.604 247.481C337.157 247.85 331.368 214.793 330.564 208.892C329.56 201.672 329.425 194.358 330.162 187.106C330.291 185.723 330.452 184.372 330.629 183.038C331.031 179.999 331.529 177.024 332.06 174.002C332.188 173.278 332.317 172.538 332.446 171.799C332.703 170.32 332.976 168.84 333.234 167.313C333.557 165.446 334.53 163.754 335.981 162.536C337.432 161.318 339.267 160.652 341.161 160.656H341.322C341.396 160.653 341.468 160.624 341.523 160.574C341.579 160.524 341.616 160.457 341.627 160.383C341.764 159.299 342.292 158.302 343.113 157.579C343.933 156.857 344.988 156.459 346.081 156.46H362.965C363.595 156.458 364.22 156.581 364.803 156.821C365.386 157.061 365.916 157.414 366.362 157.859C366.809 158.304 367.163 158.833 367.405 159.415C367.647 159.997 367.772 160.621 367.773 161.251C367.772 161.33 367.802 161.406 367.856 161.463C367.91 161.52 367.984 161.553 368.062 161.557L373.771 161.927C374.187 161.982 374.59 162.109 374.964 162.301C376.709 163.132 378.145 164.495 379.067 166.194C379.988 167.893 380.348 169.84 380.094 171.755L378.032 188.247V188.295C378.064 188.52 378.209 190.434 378.418 193.408C378.691 197.235 379.077 202.814 379.447 208.828C380.363 223.556 381.248 240.84 380.411 241.049Z" fill="#3F3D56"/>
<path d="M369.786 120.959C372.556 121.783 375.139 119.467 377.066 117.272L376.381 118.085C380.915 121.278 383.627 126.479 385.386 131.744C387.145 137.004 388.126 142.513 390.111 147.697C392.097 152.875 395.301 157.885 400.207 160.468C406.779 163.928 414.831 162.354 421.821 159.858C421.914 159.823 422.001 159.794 422.094 159.76C419.263 154.472 417.529 148.667 416.996 142.693C419.872 148.306 424.019 153.17 429.107 156.898C433.674 154.822 438.065 152.379 442.239 149.595C444.938 147.79 447.783 145.456 448.096 142.222C448.416 139.012 446.018 136.081 443.191 134.537C440.363 132.992 437.112 132.47 434.024 131.541C430.941 130.618 427.795 129.103 426.175 126.317C422.442 119.908 428.723 110.869 424.718 104.623C422.744 101.552 418.912 100.321 415.359 99.4682C409.936 98.1711 404.432 97.2421 398.883 96.6876C394.013 96.1999 388.979 96.0199 384.346 97.5873C379.714 99.1547 375.511 102.794 374.518 107.589C371.812 109.012 368.95 110.585 367.499 113.284C366.048 115.978 366.855 120.088 369.786 120.959Z" fill="#2F2E41"/>
<path d="M373.92 119.879C376.572 123.2 378.015 126.792 378.015 128.943C383.524 139.011 375.646 147.658 365.578 153.166C361.563 155.375 356.926 156.183 352.4 155.463L351.978 153.666L351.408 155.285C351.408 155.285 344.853 176.934 342.691 178.204C343.511 174.351 344.451 156.512 344.908 152.752C345.54 147.635 343.336 140.016 341.746 135.383C340.76 132.527 340.254 129.528 340.248 126.507V126.375L338.7 131.348L333.063 128.943C334.112 122.929 333.063 116.101 345.635 116.693C352.435 112.017 358.423 111.305 363.342 112.631C363.977 111.649 367.637 113.487 368.695 112.971L373.92 119.879Z" fill="#2F2E41"/>
<path d="M266.822 184.304C267.098 185.23 267.575 186.084 268.218 186.806C268.861 187.528 269.654 188.101 270.542 188.483C271.43 188.866 272.391 189.049 273.357 189.02C274.323 188.991 275.272 188.75 276.135 188.315L293.22 203.906L295.489 191.907L278.906 178.979C278.078 177.578 276.766 176.528 275.216 176.03C273.667 175.531 271.988 175.618 270.499 176.275C269.009 176.931 267.812 178.111 267.134 179.591C266.457 181.07 266.345 182.747 266.822 184.304Z" fill="#FFB6B6"/>
<path d="M326.288 172.386C326.288 172.386 332.245 158.924 339.77 161.6C347.294 164.276 343.409 177.338 343.409 177.338L315.14 219.933C315.14 219.933 285.407 201.038 290.365 200.853C295.323 200.668 295.189 191.206 295.189 191.206L307.315 195.159L308.044 191.326L309.212 192.494L312.228 190.121L326.288 172.386Z" fill="#3F3D56"/>
<path d="M70.7368 398.958L79.5156 401.263L92.5856 368.5L79.6281 365.098L70.7368 398.958Z" fill="#FFB6B6"/>
<path d="M68.0225 408.034L95.0191 415.123L95.1088 414.782C95.8405 411.995 95.4352 409.032 93.9822 406.544C92.5292 404.056 90.1474 402.247 87.3607 401.515L87.3601 401.515L82.9373 393.796L73.2281 397.805L70.8715 397.186L68.0225 408.034Z" fill="#FFB6B6"/>
<path d="M115.741 405.525L124.817 405.525L129.136 370.516L115.739 370.518L115.741 405.525Z" fill="#FFB6B6"/>
<path d="M115.421 414.993L143.333 414.992V414.639C143.333 411.758 142.188 408.995 140.151 406.958C138.114 404.921 135.35 403.776 132.469 403.776H132.468L124.744 400.227L117.857 403.777L115.421 403.777L115.421 414.993Z" fill="#FFB6B6"/>
<path d="M93.0393 237.999C90.8467 240.739 91.943 250.057 91.943 250.057L94.193 310.187C84.8744 317.861 78.1133 368.07 78.1133 368.07C79.2096 371.359 90.3924 371.834 92.585 371.286C94.7776 370.738 123.136 273.206 123.136 273.206C123.136 273.206 115.097 369.605 115.097 372.894C115.097 376.182 126.279 372.894 129.568 372.894C132.857 372.894 154.98 249.509 154.98 249.509V241.835L152.239 237.999C152.239 237.999 95.2319 235.258 93.0393 237.999Z" fill="#2F2E41"/>
<path d="M90.9772 241.049C90.9772 241.049 96.7302 226.409 97.853 223.995C95.1036 223.103 94.6932 209.373 94.6932 209.373L91.0786 205.759L91.0684 205.669L88.9883 187.469L85.9638 175.381C84.8243 170.811 84.9214 166.02 86.2452 161.5C87.5691 156.98 90.072 152.894 93.4969 149.661L100.488 148.551L108.984 140.366H122.685L127.383 144.854C136.619 152.424 138.812 149.135 149.227 163.386L141.77 183.031C141.77 183.031 150.357 223.832 149.892 226.156C149.892 226.156 153.48 230.529 153.991 232.911C153.991 232.911 155.669 242.404 155.296 242.657C152.362 244.644 136.747 242.314 129.568 239.441C121.922 236.384 90.9772 241.049 90.9772 241.049Z" fill="#3F3D56"/>
<path d="M176.779 166.795C176.779 166.795 155.696 162.474 146.613 164.862L144.61 179.118L170.327 181.401L214.221 173.423C215.264 173.835 216.397 173.964 217.506 173.797C218.615 173.629 219.66 173.171 220.535 172.47C221.41 171.768 222.084 170.847 222.488 169.801C222.892 168.755 223.012 167.62 222.835 166.512C222.659 165.405 222.193 164.364 221.484 163.494C220.775 162.625 219.849 161.959 218.799 161.564C217.75 161.168 216.614 161.057 215.508 161.243C214.402 161.428 213.364 161.902 212.501 162.618L176.779 166.795Z" fill="#FFB6B6"/>
<path d="M147.256 179.951L130.374 180.155L122.407 172.417C120.849 170.893 119.748 168.963 119.229 166.845C118.71 164.728 118.794 162.507 119.471 160.435C120.407 157.632 122.373 155.289 124.971 153.88C127.569 152.471 130.605 152.101 133.465 152.844C142.138 155.107 145.505 154.585 147.256 160.656L155.296 163.872L153.688 179.951L147.256 179.951Z" fill="#3F3D56"/>
<path d="M117.093 135.792C127.391 135.792 135.738 127.445 135.738 117.149C135.738 106.852 127.391 98.5056 117.093 98.5056C106.796 98.5056 98.4487 106.852 98.4487 117.149C98.4487 127.445 106.796 135.792 117.093 135.792Z" fill="#FFB8B8"/>
<path d="M99.6809 128.973C98.299 127.001 97.3189 123.843 96.7399 121.535C95.9653 118.496 95.8379 115.329 96.3661 112.237C96.8942 109.146 98.066 106.2 99.8056 103.59C100.447 102.527 101.368 101.658 102.466 101.079C103.021 100.803 103.649 100.709 104.26 100.811C104.871 100.914 105.434 101.207 105.868 101.648C105.871 100.812 106.044 99.9856 106.379 99.2193C106.713 98.453 107.201 97.7634 107.812 97.1929C109.045 96.0584 110.524 95.2267 112.134 94.7635C115.235 93.8179 118.535 93.7295 121.682 94.5076C124.829 95.2857 127.707 96.9014 130.011 99.1831C130.91 100.099 130.589 95.5243 131.588 96.33C132.556 97.1956 133.825 97.648 135.122 97.5904C136.398 97.4545 138.746 102.003 138.759 100.719C140.102 102.065 140.694 107.739 140.274 109.593C139.854 111.447 133.605 110.627 131.813 111.263C130.626 111.683 129.337 111.698 128.108 111.972C125.923 112.536 124.02 113.881 122.759 115.753C121.497 117.625 120.965 119.893 121.262 122.13C120.476 121.073 119.524 120.15 118.443 119.396C117.899 119.024 117.273 118.787 116.619 118.706C115.965 118.624 115.3 118.7 114.681 118.927C114.122 119.226 113.63 119.637 113.236 120.134C112.842 120.631 112.553 121.203 112.388 121.815C111.981 123.014 111.823 124.287 111.409 125.483C110.193 128.992 109.565 132.677 106.175 133.509C103.5 134.165 101.568 131.665 99.6809 128.973Z" fill="#2F2E41"/>
<path d="M341.287 429.5L313.375 429.499V429.146C313.376 426.265 314.52 423.502 316.558 421.465C318.595 419.428 321.358 418.283 324.24 418.283H324.24L331.965 414.734L338.851 418.283L341.288 418.283L341.287 429.5Z" fill="#FFB6B6"/>
<path d="M401.076 429.5L373.164 429.499V429.146C373.164 426.265 374.309 423.502 376.346 421.465C378.384 419.428 381.147 418.283 384.028 418.283H384.029L391.753 414.734L398.64 418.283L401.076 418.283L401.076 429.5Z" fill="#FFB6B6"/>
</g>
<defs>
<clipPath id="clip0_45_1099">
<rect width="495" height="429" fill="white" transform="translate(0 0.5)"/>
</clipPath>
</defs>
</svg>
